<svg xmlns:dc="http://purl.org/dc/elements/1.1/" xmlns:cc="http://creativecommons.org/ns#" xmlns:rdf="http://www.w3.org/1999/02/22-rdf-syntax-ns#" xmlns:svg="http://www.w3.org/2000/svg" xmlns="http://www.w3.org/2000/svg" xmlns:sodipodi="http://sodipodi.sourceforge.net/DTD/sodipodi-0.dtd" height="125" width="440" version="1.1" viewBox="0 0 210 60">
  
  
  
  <g id="g883" transform="matrix(0.28081958,0,0,0.28081958,-6.1766533,-1.7258836)">
    <g transform="matrix(0.70967785,0,0,0.70967785,118.57923,255.62866)" id="text4578" style="fill:#e10098">
      <path xmlns:inkscape="http://www.inkscape.org/namespaces/inkscape" inkscape:connector-curvature="0" d="m 86.812,-245.27 q -4.0215,0 -7.328,1.0724 -3.2172,0.98303 -5.6301,3.3066 -2.3235,2.2342 -3.7534,5.8088 -1.3405,3.5747 -1.5192,8.5792 -0.2681,8.043 0,16.086 0.17873,5.0045 1.5192,8.5792 1.4299,3.5746 3.7534,5.8982 2.4129,2.2342 5.6301,3.3066 3.3066,0.98303 7.328,0.98303 3.9321,0 7.328,-1.0724 3.3959,-1.1618 5.8088,-3.3959 2.5023,-2.3235 3.9321,-5.8982 1.4299,-3.5746 1.4299,-8.4004 v -4.5577 h -15.55 q -1.9661,0 -1.9661,-2.0554 v -1.2511 q 0,-2.0554 1.9661,-2.0554 h 19.124 q 2.0554,0 2.0554,2.0554 v 7.8642 q 0,5.362 -1.6086,9.8303 -1.6086,4.379 -4.7364,7.5961 -3.0385,3.2172 -7.5961,5.0045 -4.4683,1.698 -10.188,1.698 -5.8088,0 -10.188,-1.698 -4.379,-1.7873 -7.4174,-4.9152 -2.9491,-3.1278 -4.5577,-7.4174 -1.5192,-4.379 -1.698,-9.6516 -0.17873,-4.0215 -0.17873,-8.4898 0,-4.4683 0.17873,-8.4898 0.17873,-5.2726 1.7873,-9.5622 1.6086,-4.379 4.5577,-7.5068 3.0385,-3.1278 7.4174,-4.8258 4.379,-1.7873 10.098,-1.7873 6.1663,0 10.545,1.8767 4.379,1.8767 7.1493,4.4683 2.7704,2.5916 4.1108,5.4514 1.3405,2.8597 1.4299,4.7364 0.0894,0.8043 -0.44684,1.3405 -0.5362,0.44683 -1.4299,0.44683 h -1.9661 q -0.8043,0 -1.1618,-0.35747 -0.35747,-0.44683 -0.71493,-1.4299 -0.71493,-2.0554 -2.0554,-4.0215 -1.2511,-2.0554 -3.3959,-3.5746 -2.1448,-1.6086 -5.0939,-2.5916 -2.9491,-0.98303 -6.9706,-0.98303 z" id="path5736"/>
      <path xmlns:inkscape="http://www.inkscape.org/namespaces/inkscape" inkscape:connector-curvature="0" d="m 129,-227.49 q 3.2172,-6.1663 12.154,-6.1663 h 3.3066 q 1.9661,0 1.9661,1.9661 v 1.2511 q 0,1.9661 -1.9661,1.9661 h -3.8428 q -5.362,0 -8.4898,3.1278 -3.1278,3.1278 -3.1278,8.4898 v 27.704 q 0,0.89367 -0.62557,1.4299 -0.5362,0.53619 -1.4299,0.53619 h -1.4299 q -1.9661,0 -1.9661,-1.9661 v -42.449 q 0,-0.89366 0.53619,-1.4299 0.5362,-0.62557 1.4299,-0.62557 h 1.4299 q 0.89366,0 1.4299,0.62557 0.62557,0.5362 0.62557,1.4299 v 4.1108 z" id="path5738"/>
      <path xmlns:inkscape="http://www.inkscape.org/namespaces/inkscape" inkscape:connector-curvature="0" d="m 184.21,-187.18 q -1.9661,0 -1.9661,-1.9661 v -4.2002 q -0.8043,1.2511 -2.1448,2.5023 -1.2511,1.2511 -3.1278,2.2342 -1.8767,0.98303 -4.4683,1.6086 -2.5916,0.71493 -6.0769,0.71493 -3.2172,0 -6.1663,-0.98303 -2.8597,-1.0724 -5.0939,-2.8597 -2.1448,-1.7873 -3.4853,-4.2002 -1.2511,-2.4129 -1.2511,-5.2726 0,-3.0385 1.2511,-5.4514 1.3405,-2.4129 3.664,-4.2002 2.3235,-1.8767 5.5407,-3.0385 3.3066,-1.2511 7.2387,-1.7873 l 14.12,-1.9661 v -3.1278 q 0,-4.8258 -2.9491,-7.5068 -2.8597,-2.681 -9.2047,-2.681 -5.0045,0 -7.7749,1.9661 -2.681,1.8767 -3.3959,4.1108 -0.35746,1.0724 -0.89366,1.5192 -0.44683,0.35747 -1.2511,0.35747 h -1.2511 q -0.8043,0 -1.4299,-0.5362 -0.5362,-0.62557 -0.5362,-1.4299 0,-1.2511 0.89366,-3.1278 0.89367,-1.8767 2.8597,-3.664 2.0554,-1.7873 5.1832,-3.0385 3.1278,-1.3405 7.5961,-1.3405 5.2726,0 8.6685,1.4299 3.4853,1.4299 5.4514,3.7534 1.9661,2.2342 2.681,5.0045 0.8043,2.7704 0.8043,5.4514 v 29.759 q 0,1.9661 -1.9661,1.9661 H 184.21 Z m -16.89,-4.2896 q 3.0385,0 5.7194,-0.98303 2.7704,-1.0724 4.8258,-3.1278 2.0554,-2.0554 3.2172,-5.1832 1.1618,-3.1278 1.1618,-7.328 v -3.0385 l -11.528,1.6086 q -14.835,2.0554 -14.835,9.4728 0,2.2342 0.98303,3.8428 1.0724,1.6086 2.681,2.681 1.6086,1.0724 3.664,1.6086 2.0554,0.44683 4.1108,0.44683 z" id="path5740"/>
      <path xmlns:inkscape="http://www.inkscape.org/namespaces/inkscape" inkscape:connector-curvature="0" d="m 222.3,-186.29 q -5.6301,0 -9.2047,-2.0554 -3.5746,-2.0554 -5.8088,-5.0045 v 21.18 q 0,1.9661 -1.9661,1.9661 h -1.5192 q -1.9661,0 -1.9661,-1.9661 v -59.518 q 0,-1.9661 1.9661,-1.9661 h 1.5192 q 1.9661,0 1.9661,1.9661 v 4.2002 q 2.2342,-3.0384 5.8088,-5.0045 3.5747,-2.0554 9.2047,-2.0554 5.1832,0 8.7579,1.8767 3.664,1.7873 5.8982,4.8258 2.2342,2.9491 3.2172,6.7918 1.0724,3.7534 1.2511,7.6855 0.0894,1.3405 0.0894,2.9491 0,1.6086 -0.0894,2.9491 -0.17874,3.9321 -1.2511,7.7749 -0.98303,3.7534 -3.2172,6.7918 -2.2342,2.9491 -5.8982,4.8258 -3.5746,1.7873 -8.7579,1.7873 z m -15.014,-27.346 q -0.0894,1.3405 -0.0894,3.4853 0,2.1448 0.0894,3.4853 0.0894,2.681 0.89366,5.4514 0.89366,2.681 2.681,4.8258 1.78734,2.1448 4.4683,3.5746 2.681,1.3405 6.4344,1.3405 3.9321,0 6.5238,-1.3405 2.681,-1.3405 4.2896,-3.5746 1.698,-2.3235 2.4129,-5.2726 0.80429,-3.0385 0.98303,-6.2556 0.0894,-2.5023 0,-5.0045 -0.17874,-3.2172 -0.98303,-6.1663 -0.71494,-2.9491 -2.4129,-5.1832 -1.6086,-2.3235 -4.2896,-3.664 -2.5916,-1.4299 -6.5238,-1.4299 -3.8428,0 -6.5238,1.4299 -2.681,1.4299 -4.4683,3.7534 -1.698,2.2342 -2.5916,5.0045 -0.8043,2.7704 -0.89366,5.5407 z" id="path5742"/>
      <path xmlns:inkscape="http://www.inkscape.org/namespaces/inkscape" inkscape:connector-curvature="0" d="m 259.12,-227.49 q 2.4129,-3.1278 5.8088,-5.0939 3.3959,-1.9661 9.2047,-1.9661 4.5577,0 7.9536,1.5192 3.3959,1.5192 5.6301,4.2002 2.3235,2.681 3.4853,6.345 1.1618,3.664 1.1618,7.9536 v 25.38 q 0,1.9661 -1.9661,1.9661 h -1.5192 q -1.9661,0 -1.9661,-1.9661 v -24.933 q 0,-7.1493 -3.4853,-11.171 -3.4853,-4.1108 -10.188,-4.1108 -6.4344,0 -10.277,4.0215 -3.8428,4.0215 -3.8428,11.26 v 24.933 q 0,1.9661 -1.9661,1.9661 h -1.5192 q -1.9661,0 -1.9661,-1.9661 v -59.518 q 0,-1.9661 1.9661,-1.9661 h 1.5192 q 1.9661,0 1.9661,1.9661 v 21.18 z" id="path5744"/>
      <path xmlns:inkscape="http://www.inkscape.org/namespaces/inkscape" inkscape:connector-curvature="0" d="m 328.81,-250.63 q 5.1832,0 9.4728,1.5192 4.2896,1.5192 7.328,4.647 3.1278,3.0385 4.8258,7.6855 1.7873,4.5577 1.9661,10.813 0.17874,4.0215 0.17874,7.5068 0,3.4853 -0.17874,7.5068 -0.44683,12.779 -6.5237,18.767 l 5.7194,8.043 q 0.0894,0.17873 0.17873,0.35747 0.0894,0.17873 0.0894,0.62556 0,0.71493 -0.5362,1.2511 -0.5362,0.5362 -1.2511,0.5362 h -1.9661 q -0.98303,0 -1.698,-0.8043 -0.71493,-0.71493 -1.1618,-1.2511 l -3.9321,-5.4514 q -5.362,2.5916 -12.511,2.5916 -11.171,0 -17.248,-5.9876 -5.9876,-5.9876 -6.345,-18.678 -0.17873,-4.0215 -0.17873,-7.5068 0,-3.4853 0.17873,-7.5068 0.17874,-6.2556 1.8767,-10.813 1.7873,-4.647 4.8258,-7.6855 3.1278,-3.1278 7.328,-4.647 4.2896,-1.5192 9.5622,-1.5192 z m 0,5.362 q -3.7534,0 -6.9706,1.1618 -3.2172,1.0724 -5.6301,3.4853 -2.4129,2.4129 -3.8428,6.1663 -1.3405,3.7534 -1.5192,8.9366 -0.0894,2.0554 -0.17873,3.7534 0,1.698 0,3.3066 0,1.6086 0,3.3959 0.0894,1.698 0.17873,3.664 0.17874,5.2726 1.5192,9.026 1.4299,3.664 3.7534,6.0769 2.4129,2.4129 5.6301,3.5747 3.2172,1.0724 7.06,1.0724 3.8428,0 7.0599,-1.0724 3.2172,-1.1618 5.5407,-3.5747 2.4129,-2.4129 3.7534,-6.0769 1.4299,-3.7534 1.6086,-9.026 0.0894,-1.9661 0.0894,-3.664 0,-1.7873 0,-3.3959 0,-1.6086 0,-3.3066 0,-1.698 -0.0894,-3.7534 -0.17873,-5.1832 -1.6086,-8.9366 -1.3405,-3.7534 -3.7534,-6.1663 -2.4129,-2.4129 -5.6301,-3.4853 -3.2172,-1.1618 -6.9706,-1.1618 z" id="path5746"/>
      <path xmlns:inkscape="http://www.inkscape.org/namespaces/inkscape" inkscape:connector-curvature="0" d="m 372.43,-192.55 h 30.831 q 2.0554,0 2.0554,2.0554 v 1.3405 q 0,1.9661 -2.0554,1.9661 h -34.495 q -1.9661,0 -1.9661,-1.9661 v -58.624 q 0,-1.9661 1.9661,-1.9661 h 1.698 q 1.9661,0 1.9661,1.9661 v 55.228 z" id="path5748"/>
    </g>
    <g transform="matrix(0.29747296,0,0,0.29747296,30.715389,46.803584)" id="g5464" style="fill:#e10098">
      <path xmlns:inkscape="http://www.inkscape.org/namespaces/inkscape" inkscape:connector-curvature="0" d="m 57.468,302.66 -14.376,-8.3 160.15,-277.38 14.376,8.3 z" id="path5444"/>
      <path xmlns:inkscape="http://www.inkscape.org/namespaces/inkscape" inkscape:connector-curvature="0" d="m 39.8,272.2 h 320.3 v 16.6 H 39.8 Z" id="path5446"/>
      <path xmlns:inkscape="http://www.inkscape.org/namespaces/inkscape" inkscape:connector-curvature="0" d="m 206.35,374.03 -160.21,-92.5 8.3,-14.376 160.21,92.5 z m 139.17,-241.08 -160.21,-92.5 8.3,-14.376 160.21,92.5 z" id="path5448"/>
      <path xmlns:inkscape="http://www.inkscape.org/namespaces/inkscape" inkscape:connector-curvature="0" d="m 54.482,132.88 -8.3,-14.375 160.21,-92.5 8.3,14.376 z" id="path5450"/>
      <path xmlns:inkscape="http://www.inkscape.org/namespaces/inkscape" inkscape:connector-curvature="0" d="M 342.57,302.66 182.42,25.28 l 14.376,-8.3 160.15,277.38 z M 52.5,107.5 h 16.6 v 185 H 52.5 Z m 278.4,0 h 16.6 v 185 h -16.6 z" id="path5452"/>
      <path xmlns:inkscape="http://www.inkscape.org/namespaces/inkscape" inkscape:connector-curvature="0" d="m 203.52,367 -7.25,-12.558 139.34,-80.45 7.25,12.557 z" id="path5454"/>
      <path xmlns:inkscape="http://www.inkscape.org/namespaces/inkscape" inkscape:connector-curvature="0" d="m 369.5,297.9 c -9.6,16.7 -31,22.4 -47.7,12.8 -16.7,-9.6 -22.4,-31 -12.8,-47.7 9.6,-16.7 31,-22.4 47.7,-12.8 16.8,9.7 22.5,31 12.8,47.7 M 90.9,137 c -9.6,16.7 -31,22.4 -47.7,12.8 -16.7,-9.6 -22.4,-31 -12.8,-47.7 9.6,-16.7 31,-22.4 47.7,-12.8 16.7,9.7 22.4,31 12.8,47.7 M 30.5,297.9 c -9.6,-16.7 -3.9,-38 12.8,-47.7 16.7,-9.6 38,-3.9 47.7,12.8 9.6,16.7 3.9,38 -12.8,47.7 -16.8,9.6 -38.1,3.9 -47.7,-12.8 M 309.1,137 c -9.6,-16.7 -3.9,-38 12.8,-47.7 16.7,-9.6 38,-3.9 47.7,12.8 9.6,16.7 3.9,38 -12.8,47.7 -16.7,9.6 -38.1,3.9 -47.7,-12.8 M 200,395.8 c -19.3,0 -34.9,-15.6 -34.9,-34.9 0,-19.3 15.6,-34.9 34.9,-34.9 19.3,0 34.9,15.6 34.9,34.9 0,19.2 -15.6,34.9 -34.9,34.9 M 200,74 c -19.3,0 -34.9,-15.6 -34.9,-34.9 0,-19.3 15.6,-34.9 34.9,-34.9 19.3,0 34.9,15.6 34.9,34.9 0,19.3 -15.6,34.9 -34.9,34.9" id="path5456"/>
    </g>
   </g>
   <g transform="scale(0.08),translate(1450, 90)">
   <path xmlns="http://www.w3.org/2000/svg" d="m36 218h211v-87l209 121-209 123v-87h-211" fill="#124"/>
   </g>
   <g transform="scale(0.18),translate(550, -90),scale(1.8)">
      <g>
         <path fill="#93D500" d="M226.89,137.615h-0.137l-35.805,0.001c0.006,0.176,0.012,0.352,0.02,0.526             c0.015,0.338,0.039,0.675,0.06,1.013c0.01,0.145,0.016,0.29,0.027,0.433c0.028,0.391,0.062,0.781,0.097,1.169             c0.008,0.088,0.016,0.176,0.025,0.262c0.041,0.433,0.088,0.865,0.14,1.295c0.003,0.043,0.007,0.084,0.013,0.125             c0.056,0.464,0.116,0.929,0.184,1.391c0,0.005,0.001,0.012,0.003,0.017c0.412,2.865,1.031,5.703,1.856,8.493             c0.003,0.012,0.008,0.023,0.01,0.035c0.129,0.439,0.266,0.876,0.405,1.31c0.009,0.026,0.017,0.051,0.025,0.077             c0.008,0.026,0.016,0.052,0.025,0.077c0.127,0.393,0.261,0.784,0.396,1.177c0.035,0.098,0.069,0.198,0.105,0.297             c0.12,0.339,0.243,0.679,0.369,1.017c0.059,0.153,0.116,0.306,0.174,0.46c0.109,0.281,0.218,0.559,0.328,0.84             c0.084,0.21,0.171,0.421,0.259,0.632c0.09,0.219,0.182,0.437,0.275,0.657c0.115,0.268,0.233,0.533,0.351,0.8             c0.071,0.159,0.142,0.318,0.213,0.475c0.146,0.32,0.296,0.64,0.448,0.957c0.05,0.102,0.097,0.205,0.148,0.307             c0.176,0.366,0.356,0.729,0.538,1.089c0.031,0.056,0.057,0.111,0.086,0.166c0.206,0.399,0.415,0.798,0.63,1.193             c0.009,0.017,0.02,0.034,0.028,0.053c0.045,0.082,0.095,0.161,0.14,0.243l30.697-18.492l0.114-0.068             C227.923,143.088,227.169,140.373,226.89,137.615z"/>
         <polygon fill="#93D500" points="192.644,154.097 192.655,154.129 193.815,153.764   "/>
         <path fill="#4D5A31" d="M235.723,154.115l-0.087,0.087l-25.317,25.318c0.13,0.122,0.259,0.244,0.392,0.362             c0.236,0.214,0.477,0.427,0.716,0.636c0.124,0.11,0.246,0.221,0.369,0.327c0.287,0.248,0.576,0.49,0.865,0.732             c0.079,0.066,0.156,0.13,0.234,0.195c0.325,0.269,0.656,0.533,0.987,0.795c0.042,0.033,0.085,0.067,0.127,0.101             c0.359,0.283,0.722,0.557,1.087,0.834c0.016,0.01,0.03,0.02,0.041,0.03c1.525,1.14,3.105,2.207,4.736,3.202             c0.056,0.035,0.112,0.068,0.169,0.103c0.31,0.185,0.62,0.37,0.933,0.551c0.191,0.109,0.382,0.218,0.573,0.326             c0.18,0.104,0.36,0.205,0.543,0.305c0.328,0.181,0.659,0.359,0.99,0.533c0.045,0.024,0.091,0.049,0.137,0.073             c0.921,0.481,1.857,0.929,2.8,1.359l0,0l0.898-2.181l12.734-30.923l0.047-0.115C238.31,156.023,236.977,155.142,235.723,154.115z"/>
         <path fill="#6BA43A" d="M233.086,151.593c-0.273-0.305-0.534-0.616-0.789-0.931c-0.226-0.279-0.445-0.561-0.657-0.848             c-0.242-0.328-0.479-0.658-0.703-0.995c-0.226-0.338-0.448-0.679-0.657-1.025l-30.735,18.515c0.472,0.784,0.965,1.548,1.467,2.303             c0.017,0.026,0.033,0.053,0.05,0.079l0,0c0.006,0.009,0.012,0.019,0.018,0.028c0.017,0.025,0.032,0.051,0.048,0.076             c0.002,0.003,0.003,0.005,0.005,0.008c0.04,0.06,0.082,0.12,0.123,0.18c0.002,0.004,0.005,0.007,0.007,0.011c0,0,0,0,0,0             c0.001,0.002,0.002,0.003,0.003,0.005c0.534,0.79,1.082,1.566,1.647,2.323c0.012,0.016,0.025,0.032,0.037,0.049             c0.012,0.016,0.024,0.031,0.036,0.047c0.245,0.326,0.492,0.651,0.746,0.973c0.033,0.042,0.066,0.084,0.101,0.125             c0.261,0.333,0.526,0.662,0.795,0.987c0.063,0.077,0.129,0.154,0.192,0.233c0.244,0.291,0.486,0.579,0.735,0.867             c0.106,0.122,0.216,0.246,0.324,0.368c0.211,0.241,0.421,0.48,0.638,0.718c0.118,0.13,0.24,0.261,0.362,0.391             c0.055,0.059,0.109,0.118,0.164,0.177c0.158,0.17,0.315,0.341,0.475,0.509c0.064,0.067,0.13,0.133,0.195,0.2             c0.28,0.292,0.562,0.583,0.85,0.871l25.354-25.355C233.628,152.192,233.356,151.893,233.086,151.593z"/>
         <path fill="#4D5A31" d="M266.695,154.102c-0.279,0.225-0.561,0.445-0.847,0.656l0.063,0.105l18.486,30.687             c0.856-0.559,1.702-1.135,2.529-1.741c1.789-1.319,3.521-2.749,5.189-4.289l-25.32-25.319L266.695,154.102z"/>
         <path fill="#93D500" d="M282.061,187.012c0.014-0.008,0.027-0.015,0.041-0.023l-0.001-0.001             C282.087,186.996,282.074,187.004,282.061,187.012L282.061,187.012z"/>
         <polygon fill="#93D500" points="282.043,187.023 282.043,187.023 282.043,187.022 282.042,187.023   "/>
         <path fill="#93D500" d="M282.101,186.988l0.001,0.001c0.081-0.045,0.162-0.087,0.242-0.135l-0.005-0.008             C282.259,186.893,282.18,186.941,282.101,186.988z"/>
         <polygon fill="#93D500" points="282.05,187.018 282.061,187.012 282.06,187.012   "/>
         <polygon fill="#93D500" points="282.042,187.023 282.043,187.022 281.998,186.946   "/>
         <path fill="#93D500" d="M282.061,187.012L282.061,187.012c0.014-0.007,0.028-0.014,0.041-0.022l0-0.001             C282.088,186.997,282.074,187.004,282.061,187.012z"/>
         <polygon fill="#93D500" points="282.027,187.032 282.027,187.032 282.037,187.026 282.037,187.026   "/>
         <polygon fill="#93D500" points="282.042,187.023 282.037,187.026 282.037,187.026 282.043,187.023   "/>
         <path fill="#93D500" d="M282.05,187.018c-0.002,0.001-0.005,0.003-0.007,0.004l0,0.001c0.006-0.003,0.012-0.007,0.018-0.01             l0-0.001C282.057,187.014,282.053,187.016,282.05,187.018z"/>
         <path fill="#93D500" d="M282.102,186.99c0.08-0.047,0.162-0.088,0.241-0.136C282.263,186.902,282.182,186.944,282.102,186.99             L282.102,186.99z"/>
         <polygon fill="#93D500" points="282.343,186.854 282.338,186.846 282.338,186.846   "/>
         
            <rect x="282.027" y="187.032" transform="matrix(0.8321 -0.5547 0.5547 0.8321 -56.3805 187.8522)" fill="#93D500" width="0" height="0"/>
         <polygon fill="#93D500" points="282.017,187.038 282.018,187.037 282.019,187.037   "/>
         <polygon fill="#93D500" points="282.026,187.033 282.019,187.037 282.019,187.037 282.027,187.032 282.026,187.032   "/>
         <path fill="#93D500" d="M281.71,185.803l-0.627-1.041l-17.256-28.644c-0.349,0.21-0.706,0.4-1.063,0.592             c-0.359,0.193-0.723,0.374-1.09,0.548c-3.315,1.573-6.904,2.376-10.497,2.376c-2.354,0-4.707-0.34-6.982-1.019             c-0.388-0.116-0.766-0.268-1.149-0.403c-0.383-0.135-0.771-0.252-1.148-0.407l-12.725,30.902l-0.499,1.212l-0.427,1.037             l-0.002,0.005c0.033,0.014,0.066,0.025,0.099,0.038c0.035,0.014,0.07,0.026,0.104,0.04l0.001,0c0.001,0,0.002,0.001,0.002,0.001             c0.009,0.004,0.017,0.006,0.025,0.009c0.301,0.122,0.603,0.229,0.905,0.346c0.379,0.147,0.757,0.296,1.136,0.435             c0.193,0.071,0.386,0.153,0.579,0.222l0.001,0l0,0c3.986,1.408,8.111,2.393,12.305,2.945c0.164,0.02,0.327,0.043,0.492,0.065             c0.171,0.02,0.344,0.037,0.516,0.056c0.323,0.037,0.646,0.074,0.97,0.106c0.08,0.006,0.161,0.013,0.24,0.021             c0.398,0.037,0.795,0.071,1.191,0.099c0.135,0.01,0.271,0.016,0.405,0.025c0.349,0.023,0.696,0.045,1.044,0.061             c0.213,0.012,0.426,0.018,0.64,0.026c0.276,0.01,0.551,0.021,0.829,0.029c0.397,0.01,0.799,0.013,1.199,0.015             c0.095,0,0.189,0.002,0.283,0.004c3.351,0,6.7-0.279,10.011-0.834h0c0.056-0.008,0.111-0.018,0.167-0.026             c0.35-0.061,0.7-0.126,1.051-0.191c0.199-0.039,0.4-0.076,0.597-0.115c0.204-0.042,0.41-0.085,0.614-0.128             c0.342-0.072,0.683-0.145,1.023-0.225c0.061-0.013,0.122-0.026,0.185-0.042c5.036-1.174,9.899-2.991,14.467-5.394l0.002-0.001l0,0             c0.299-0.158,0.591-0.337,0.889-0.5c0.355-0.194,0.708-0.395,1.061-0.597c0.244-0.14,0.491-0.269,0.734-0.413             c0.001,0,0.001-0.001,0.001-0.001c0.003-0.002,0.005-0.003,0.008-0.005c0,0,0,0,0.001,0l0,0c0.003-0.002,0.007-0.004,0.01-0.006             c0.002-0.001,0.004-0.002,0.005-0.003l-0.044-0.076l0.045,0.076c0.002-0.001,0.005-0.003,0.007-0.004             c0.003-0.002,0.007-0.004,0.01-0.006c0.014-0.008,0.027-0.016,0.04-0.024c0.079-0.047,0.158-0.095,0.237-0.142l0,0L281.71,185.803             z"/>
         <path fill="#93D500" d="M235.737,116.265c0.279-0.226,0.561-0.445,0.848-0.657l-0.063-0.105l-18.485-30.687             c-0.859,0.561-1.707,1.138-2.535,1.746c-1.788,1.316-3.518,2.745-5.183,4.283l25.32,25.32L235.737,116.265z"/>
         <path fill="#4D5A31" d="M208.563,92.53c-0.288,0.288-0.56,0.586-0.841,0.878c-0.281,0.292-0.567,0.582-0.841,0.879             c-1.87,2.025-3.58,4.145-5.122,6.348c-0.074,0.104-0.149,0.212-0.221,0.317c-0.174,0.253-0.346,0.506-0.515,0.76             c-0.176,0.264-0.352,0.531-0.522,0.798c-0.064,0.097-0.128,0.196-0.189,0.293c-5.823,9.136-8.944,19.498-9.364,29.948             c-0.016,0.405-0.024,0.811-0.032,1.216c-0.008,0.405-0.021,0.811-0.021,1.216l35.859-0.001c0-0.406,0.038-0.81,0.058-1.216             c0.02-0.406,0.026-0.812,0.067-1.216c0.464-4.669,2.266-9.229,5.408-13.059c0.255-0.311,0.544-0.603,0.817-0.904             c0.273-0.301,0.526-0.613,0.816-0.903L208.563,92.53z"/>
         <path fill="#4D5A31" d="M282.551,83.629c-0.049-0.03-0.099-0.06-0.148-0.089c-0.315-0.193-0.633-0.379-0.952-0.566             c-0.185-0.107-0.369-0.211-0.555-0.317c-0.188-0.104-0.372-0.209-0.56-0.312c-0.324-0.178-0.648-0.352-0.974-0.525             c-0.051-0.026-0.101-0.054-0.153-0.08c-2.102-1.1-4.262-2.068-6.467-2.907c-0.056-0.024-0.115-0.045-0.171-0.066             c-0.48-0.18-0.962-0.358-1.447-0.527c-3.916-1.368-7.967-2.328-12.083-2.868c-0.168-0.024-0.336-0.047-0.504-0.068             c-0.169-0.021-0.337-0.038-0.504-0.056c-0.324-0.038-0.649-0.074-0.974-0.106c-0.09-0.008-0.181-0.015-0.273-0.024             c-0.386-0.036-0.773-0.07-1.158-0.097c-0.15-0.011-0.301-0.019-0.452-0.028c-0.331-0.022-0.665-0.045-0.996-0.059             c-0.177-0.009-0.353-0.014-0.528-0.02l-0.002,35.805v0.14c1.844,0.191,3.672,0.584,5.446,1.186l26.454-26.454             C284.565,84.912,283.572,84.25,282.551,83.629z"/>
         <polygon fill="#6BA43A" points="220.722,84.561 220.095,83.519 220.095,83.519 220.722,84.561   "/>
         <polygon fill="#6BA43A" points="220.09,83.513 220.095,83.519 220.095,83.519   "/>
         <path fill="#6BA43A" d="M250,74.887c-0.405,0.008-0.811,0.009-1.216,0.026c-2.537,0.102-5.069,0.362-7.58,0.781             c-0.055,0.009-0.11,0.018-0.166,0.027c-0.352,0.061-0.701,0.125-1.051,0.191c-0.198,0.037-0.398,0.075-0.596,0.114             c-0.206,0.041-0.412,0.084-0.618,0.129c-0.341,0.071-0.682,0.145-1.021,0.224h0c-0.062,0.013-0.123,0.029-0.187,0.042             c-5.035,1.174-9.901,2.992-14.469,5.396c0,0,0,0,0,0l-0.001,0c-0.298,0.158-0.589,0.337-0.886,0.499             c-0.355,0.194-0.708,0.395-1.06,0.598c-0.262,0.151-0.528,0.289-0.788,0.445c-0.003,0.002-0.006,0.003-0.009,0.005             c0,0-0.001,0-0.001,0.001c-0.018,0.011-0.037,0.02-0.055,0.031c-0.068,0.041-0.138,0.075-0.206,0.116l0.004,0.007l0.628,1.042h0             l17.882,29.686c0.349-0.21,0.706-0.401,1.063-0.593c0.359-0.193,0.723-0.375,1.089-0.549c2.554-1.216,5.268-1.97,8.027-2.25             c0.405-0.041,0.81-0.075,1.216-0.096c0.405-0.02,0.81-0.041,1.216-0.042l0.002-35.858C250.811,74.861,250.406,74.878,250,74.887z"/>
         <path fill="#4D5A31" d="M311.464,132.218c-0.016-0.322-0.036-0.644-0.058-0.966c-0.01-0.16-0.019-0.32-0.032-0.483             c-0.027-0.378-0.059-0.757-0.094-1.136c-0.008-0.098-0.017-0.196-0.026-0.294c-0.041-0.423-0.087-0.846-0.135-1.268             c-0.005-0.034-0.008-0.068-0.012-0.102c-0.002-0.016-0.004-0.033-0.006-0.049c-0.056-0.456-0.116-0.912-0.181-1.367             c-0.001-0.014-0.003-0.03-0.006-0.042c-0.413-2.859-1.03-5.692-1.853-8.478c-0.006-0.019-0.011-0.037-0.017-0.054             c-0.13-0.433-0.262-0.863-0.399-1.293c-0.018-0.056-0.037-0.113-0.055-0.17c-0.127-0.388-0.256-0.774-0.39-1.16             c-0.038-0.104-0.074-0.208-0.11-0.313c-0.118-0.334-0.24-0.668-0.364-1c-0.06-0.159-0.12-0.318-0.182-0.475             c-0.105-0.276-0.213-0.552-0.322-0.825c-0.088-0.219-0.175-0.435-0.265-0.65c-0.088-0.214-0.178-0.426-0.268-0.639             c-0.118-0.273-0.237-0.545-0.358-0.817c-0.068-0.152-0.136-0.306-0.206-0.46c-0.148-0.323-0.3-0.647-0.454-0.97             c-0.047-0.098-0.093-0.196-0.141-0.294c-0.178-0.368-0.36-0.736-0.545-1.102c-0.027-0.05-0.053-0.101-0.08-0.152             c-0.207-0.403-0.418-0.806-0.634-1.204c-0.008-0.014-0.015-0.029-0.023-0.043c-1.045-1.922-2.191-3.78-3.432-5.567l-26.463,26.463             c0.602,1.774,0.994,3.601,1.185,5.444h0.141h35.806C311.478,132.572,311.473,132.394,311.464,132.218z"/>
         <path fill="#6BA43A" d="M275.678,135.182c0,0.406-0.038,0.81-0.058,1.216c-0.02,0.406-0.026,0.812-0.066,1.216             c-0.464,4.669-2.265,9.23-5.407,13.061c-0.255,0.311-0.544,0.603-0.817,0.904c-0.272,0.301-0.526,0.613-0.816,0.903l25.356,25.355             c0.288-0.288,0.56-0.586,0.841-0.879c0.281-0.293,0.567-0.582,0.841-0.879c1.876-2.032,3.591-4.158,5.136-6.368             c0.062-0.087,0.12-0.174,0.18-0.261c0.189-0.271,0.372-0.545,0.556-0.818c0.161-0.244,0.323-0.489,0.481-0.736             c0.078-0.118,0.155-0.24,0.231-0.359c5.815-9.131,8.927-19.483,9.345-29.924c0.016-0.405,0.024-0.811,0.032-1.216             c0.008-0.405,0.021-0.81,0.021-1.216H275.678z"/>
      </g>
      <path fill="#424143" d="M322.187,64.211c-6.56-6.56-17.197-6.56-23.757,0c-5.234,5.233-6.279,13.055-3.163,19.337l-36.592,36.593          c-6.283-3.115-14.104-2.07-19.339,3.162c-6.561,6.56-6.559,17.198-0.001,23.758c6.562,6.561,17.199,6.559,23.76-0.001          c5.233-5.233,6.278-13.055,3.161-19.338l36.592-36.591c6.283,3.116,14.104,2.07,19.338-3.163          C328.746,81.409,328.746,70.771,322.187,64.211z"/>
   </g>
</svg>
